<?xml version="1.0" encoding="utf-8"?><svg width="115" height="105" viewBox="0 0 115 105" xmlns="http://www.w3.org/2000/svg" xmlns:xlink="http://www.w3.org/1999/xlink"><svg width="9" height="10" fill="none" viewBox="0 0 9 10" id="bookmark" x="90" y="49" xmlns="http://www.w3.org/2000/svg"><path d="M0 .625C0 .25.257 0 .643 0h7.714C8.743 0 9 .25 9 .625V9.62c0 .375-.257.437-.514.25L5.014 7.246c-.257-.187-.707-.187-1.028 0L.514 9.87C.257 10.12 0 9.995 0 9.62V.625z" fill="#FF781C"/></svg><svg width="15" height="17" fill="none" viewBox="0 0 15 17" id="bookmark-active" x="99" y="18" xmlns="http://www.w3.org/2000/svg"><path d="M0 1.062C0 .425.429 0 1.071 0H13.93C14.57 0 15 .425 15 1.062v15.292c0 .637-.429.744-.857.425l-5.786-4.46C7.93 12 7.18 12 6.643 12.319l-5.786 4.46c-.428.425-.857.212-.857-.425V1.062z" fill="#fff"/></svg><svg width="18" height="12" fill="none" viewBox="0 0 18 12" id="contact-email" x="56" y="63" xmlns="http://www.w3.org/2000/svg"><path d="M0 2.5V1a1 1 0 011-1h16a1 1 0 011 1v1.5L9.447 6.776a1 1 0 01-.894 0L0 2.5z" fill="#505050"/><path d="M0 11V4l8.553 4.276a1 1 0 00.894 0L18 4v7a1 1 0 01-1 1H1a1 1 0 01-1-1z" fill="#505050"/></svg><svg width="9" height="19" fill="none" viewBox="0 0 9 19" id="contact-facebook" x="47" y="63" xmlns="http://www.w3.org/2000/svg"><path d="M9 6.5H5.7V4.1c0-.7.7-.9 1.1-.9h2.1V0H6.5c-3.3 0-4 2.4-4 4v2.6H0v3.3h2.5V19h3.3V9.9h2.8L9 6.5z" fill="#505050"/></svg><svg width="16" height="18" fill="none" viewBox="0 0 16 18" id="contact-phone" x="99" xmlns="http://www.w3.org/2000/svg"><path d="M4.904 13.968s2.798 2.983 6.2 3.853c0 0 2.345.796 4.235-.97 0 0 1.236-.695.328-2.112l-2.344-2.809s-.555-.77-1.638-.273L9.97 12.999s-4.008-2.635-5.293-6.587l1.31-1.044s1.31-.895.277-2.212L3.972.346S3.115-.398 2.107.298c0 0-2.445 1.616-2.067 4.797 0 0-.303 3.306 4.864 8.874z" fill="#505050"/></svg><svg width="20" height="12" fill="none" viewBox="0 0 20 12" id="contact-vk" x="70" y="49" xmlns="http://www.w3.org/2000/svg"><path d="M19.821 10.707c-.055-.095-.387-.855-1.984-2.416-1.676-1.636-1.45-1.368.566-4.2 1.23-1.721 1.719-2.773 1.567-3.225-.145-.428-1.051-.317-1.051-.317l-3.004.017s-.222-.033-.39.074c-.16.103-.266.34-.266.34s-.476 1.332-1.11 2.466c-1.339 2.392-1.874 2.52-2.093 2.371-.507-.345-.382-1.393-.382-2.132 0-2.318.332-3.284-.653-3.534-.328-.082-.566-.14-1.402-.148C8.545-.01 7.64.007 7.123.27c-.343.177-.605.571-.445.592.2.028.649.127.887.468.308.44.297 1.43.297 1.43s.175 2.728-.414 3.07c-.407.234-.961-.243-2.156-2.412-.61-1.11-1.074-2.343-1.074-2.343s-.09-.23-.247-.349a1.225 1.225 0 00-.46-.197L.65.545S.22.558.065.755c-.14.177-.012.534-.012.534s2.238 5.506 4.769 8.28c2.324 2.543 4.96 2.379 4.96 2.379h1.195s.36-.041.547-.25c.172-.194.164-.551.164-.551s-.023-1.69.723-1.936c.734-.246 1.675 1.632 2.675 2.35.754.547 1.328.428 1.328.428l2.672-.041c0 .008 1.398-.082.734-1.241z" fill="#505050"/></svg><svg width="16" height="15" fill="none" viewBox="0 0 16 15" id="map-event" x="99" y="52" xmlns="http://www.w3.org/2000/svg"><rect opacity=".5" y="8" width="16" height="4" rx="1" fill="#FF781C"/><rect opacity=".2" y="13" width="16" height="2" rx="1" fill="#FF781C"/><rect width="16" height="7" rx="1" fill="#FF781C"/></svg><svg width="21" height="29" fill="none" viewBox="0 0 21 29" id="map-position" y="34" xmlns="http://www.w3.org/2000/svg"><path d="M10.5 0C4.705 0 0 4.59 0 10.244c0 5.806 6.228 13.794 9.09 17.159.75.88 2.07.88 2.82 0C14.771 24.038 21 16.05 21 10.244 21 4.59 16.295 0 10.5 0zm0 14.743c-2.555 0-4.611-2.006-4.611-4.499 0-2.492 2.056-4.499 4.611-4.499 2.555 0 4.611 2.007 4.611 4.5 0 2.492-2.087 4.498-4.611 4.498z" fill="url(#hpaint0_linear)"/><path d="M10.5 0C4.705 0 0 4.59 0 10.244c0 5.806 6.228 13.794 9.09 17.159.75.88 2.07.88 2.82 0C14.771 24.038 21 16.05 21 10.244 21 4.59 16.295 0 10.5 0zm0 14.743c-2.555 0-4.611-2.006-4.611-4.499 0-2.492 2.056-4.499 4.611-4.499 2.555 0 4.611 2.007 4.611 4.5 0 2.492-2.087 4.498-4.611 4.498z" fill="url(#hpaint1_linear)"/><defs><linearGradient id="hpaint0_linear" x1="0" y1="19.87" x2="16.952" y2="-4.583" gradientUnits="userSpaceOnUse"><stop stop-color="#FF971C"/><stop offset="1" stop-color="#F60"/></linearGradient><linearGradient id="hpaint1_linear" x1="0" y1="19.87" x2="16.952" y2="-4.583" gradientUnits="userSpaceOnUse"><stop stop-color="#FF971C"/><stop offset="1" stop-color="#F60"/></linearGradient></defs></svg><svg width="20" height="22" fill="none" viewBox="0 0 20 22" id="menu-feed" x="50" y="34" xmlns="http://www.w3.org/2000/svg"><rect y="15.4" width="20" height="6.6" rx="1" fill="url(#ipaint0_linear)" fill-opacity=".6"/><rect width="20" height="13.2" rx="1" fill="url(#ipaint1_linear)"/><defs><linearGradient id="ipaint0_linear" x1="3.158" y1="23.434" x2="1.198" y2="15.91" gradientUnits="userSpaceOnUse"><stop stop-color="#505050"/><stop offset="1" stop-color="#333"/></linearGradient><linearGradient id="ipaint1_linear" x1="0" y1="13.2" x2="-4.724" y2="-.053" gradientUnits="userSpaceOnUse"><stop stop-color="#505050"/><stop offset="1" stop-color="#333"/></linearGradient></defs></svg><svg width="20" height="22" fill="none" viewBox="0 0 20 22" id="menu-feed-active" x="27" y="63" xmlns="http://www.w3.org/2000/svg"><rect opacity=".5" y="15.4" width="20" height="6.6" rx="1" fill="url(#jpaint0_linear)"/><rect width="20" height="13.2" rx="1" fill="url(#jpaint1_linear)"/><defs><linearGradient id="jpaint0_linear" x1="10" y1="15.4" x2="10" y2="22" gradientUnits="userSpaceOnUse"><stop stop-color="#F66200"/><stop offset="1" stop-color="#FF971C"/></linearGradient><linearGradient id="jpaint1_linear" x1="10" y1="0" x2="10" y2="13.2" gradientUnits="userSpaceOnUse"><stop stop-color="#F66200"/><stop offset="1" stop-color="#FF971C"/></linearGradient></defs></svg><svg width="35" height="34" fill="none" viewBox="0 0 35 34" id="menu-map" xmlns="http://www.w3.org/2000/svg"><path d="M3.38 24.626A1 1 0 014.305 24h14.388a1 1 0 01.927.626l2.825 7A1 1 0 0121.517 33H1.482a1 1 0 01-.928-1.374l2.825-7z" fill="url(#kpaint0_linear)" fill-opacity=".6"/><path d="M11.5 8C7.36 8 4 11.324 4 15.418c0 4.418 4.912 10.58 6.786 12.77a.933.933 0 001.428 0C14.088 25.999 19 19.837 19 15.419 19 11.324 15.64 8 11.5 8zm0 10.676c-1.825 0-3.294-1.453-3.294-3.258s1.47-3.258 3.294-3.258c1.825 0 3.294 1.453 3.294 3.258s-1.491 3.258-3.294 3.258z" fill="url(#kpaint1_linear)"/><g filter="url(#kfilter0_d)"><circle cx="21.5" cy="9.5" r="7.5" fill="#2E61E5"/><circle cx="21.5" cy="9.5" r="7.5" fill="#2459E2"/></g><path d="M18.367 8.258v-.059c0-.426.313-.789.809-.789.453 0 .789.293.789.746 0 .403-.246.719-.594 1.086l-1.937 2.102V12h3.671v-.86h-2.234v-.03l1.203-1.352c.613-.656.938-1.078.938-1.7 0-.87-.715-1.492-1.79-1.492-1.136 0-1.855.743-1.855 1.641v.05h1zm5.38 3.082c-.579 0-1.017-.352-1.017-.875 0-.524.438-.883 1.016-.883.574 0 1.016.36 1.016.883s-.442.875-1.016.875zm0-2.477c-.485 0-.845-.316-.845-.77 0-.452.36-.757.844-.757.485 0 .844.305.844.758s-.36.77-.844.77zm-.013 3.239c1.25 0 2.075-.645 2.075-1.57 0-.84-.633-1.231-1.118-1.329v-.031c.442-.137.907-.5.907-1.195 0-.813-.739-1.41-1.852-1.41s-1.851.597-1.851 1.41c0 .687.449 1.054.902 1.195v.031c-.48.098-1.117.485-1.117 1.332 0 .926.808 1.567 2.054 1.567z" fill="#D5D5D5"/><defs><linearGradient id="kpaint0_linear" x1="3.632" y1="34.956" x2=".543" y2="24.954" gradientUnits="userSpaceOnUse"><stop stop-color="#505050"/><stop offset="1" stop-color="#333"/></linearGradient><linearGradient id="kpaint1_linear" x1="4" y1="29" x2="-7.431" y2="13.879" gradientUnits="userSpaceOnUse"><stop stop-color="#505050"/><stop offset="1" stop-color="#333"/></linearGradient><filter id="kfilter0_d" x="8" y="0" width="27" height="27" filterUnits="userSpaceOnUse" color-interpolation-filters="sRGB"><feFlood flood-opacity="0" result="BackgroundImageFix"/><feColorMatrix in="SourceAlpha" values="0 0 0 0 0 0 0 0 0 0 0 0 0 0 0 0 0 0 127 0"/><feOffset dy="4"/><feGaussianBlur stdDeviation="3"/><feColorMatrix values="0 0 0 0 0 0 0 0 0 0 0 0 0 0 0 0 0 0 0.25 0"/><feBlend in2="BackgroundImageFix" result="effect1_dropShadow"/><feBlend in="SourceGraphic" in2="effect1_dropShadow" result="shape"/></filter></defs></svg><svg width="35" height="34" fill="none" viewBox="0 0 35 34" id="menu-map-active" x="35" xmlns="http://www.w3.org/2000/svg"><path opacity=".5" d="M3.38 25.626A1 1 0 014.305 25h14.388a1 1 0 01.927.626l2.825 7A1 1 0 0121.517 34H1.482a1 1 0 01-.928-1.374l2.825-7z" fill="url(#lpaint0_linear)"/><path d="M11.5 8C7.36 8 4 11.324 4 15.418c0 4.418 4.912 10.58 6.786 12.77a.933.933 0 001.428 0C14.088 25.999 19 19.837 19 15.419 19 11.324 15.64 8 11.5 8zm0 10.676c-1.825 0-3.294-1.453-3.294-3.258s1.47-3.258 3.294-3.258c1.825 0 3.294 1.453 3.294 3.258s-1.491 3.258-3.294 3.258z" fill="url(#lpaint1_linear)"/><g filter="url(#lfilter0_d)"><circle cx="21.5" cy="9.5" r="7.5" fill="#2E61E5"/><circle cx="21.5" cy="9.5" r="7.5" fill="#2459E2"/></g><path d="M18.367 8.258v-.059c0-.426.313-.789.809-.789.453 0 .789.293.789.746 0 .403-.246.719-.594 1.086l-1.937 2.102V12h3.671v-.86h-2.234v-.03l1.203-1.352c.613-.656.938-1.078.938-1.7 0-.87-.715-1.492-1.79-1.492-1.136 0-1.855.743-1.855 1.641v.05h1zm5.38 3.082c-.579 0-1.017-.352-1.017-.875 0-.524.438-.883 1.016-.883.574 0 1.016.36 1.016.883s-.442.875-1.016.875zm0-2.477c-.485 0-.845-.316-.845-.77 0-.452.36-.757.844-.757.485 0 .844.305.844.758s-.36.77-.844.77zm-.013 3.239c1.25 0 2.075-.645 2.075-1.57 0-.84-.633-1.231-1.118-1.329v-.031c.442-.137.907-.5.907-1.195 0-.813-.739-1.41-1.852-1.41s-1.851.597-1.851 1.41c0 .687.449 1.054.902 1.195v.031c-.48.098-1.117.485-1.117 1.332 0 .926.808 1.567 2.054 1.567z" fill="#D5D5D5"/><defs><linearGradient id="lpaint0_linear" x1="11.5" y1="25" x2="11.5" y2="34" gradientUnits="userSpaceOnUse"><stop stop-color="#F66200"/><stop offset="1" stop-color="#FF971C"/></linearGradient><linearGradient id="lpaint1_linear" x1="11.5" y1="8" x2="11.5" y2="29" gradientUnits="userSpaceOnUse"><stop stop-color="#F66200"/><stop offset="1" stop-color="#FF971C"/></linearGradient><filter id="lfilter0_d" x="8" y="0" width="27" height="27" filterUnits="userSpaceOnUse" color-interpolation-filters="sRGB"><feFlood flood-opacity="0" result="BackgroundImageFix"/><feColorMatrix in="SourceAlpha" values="0 0 0 0 0 0 0 0 0 0 0 0 0 0 0 0 0 0 127 0"/><feOffset dy="4"/><feGaussianBlur stdDeviation="3"/><feColorMatrix values="0 0 0 0 0 0 0 0 0 0 0 0 0 0 0 0 0 0 0.25 0"/><feBlend in2="BackgroundImageFix" result="effect1_dropShadow"/><feBlend in="SourceGraphic" in2="effect1_dropShadow" result="shape"/></filter></defs></svg><svg width="27" height="26" fill="none" viewBox="0 0 27 26" id="menu-profile" x="70" y="23" xmlns="http://www.w3.org/2000/svg"><path d="M11 5.554a1 1 0 01.47-.848l7-4.375a1 1 0 011.06 0l7 4.375a1 1 0 01.47.848V16a1 1 0 01-1 1H12a1 1 0 01-1-1V5.554z" fill="url(#mpaint0_linear)" fill-opacity=".6"/><path d="M0 25.21c0-4.078 4.981-5.74 7.199-6.262.047-.01.116-.015.116-.064v-.503c0-.215-.07-.455-.188-.647a6.319 6.319 0 01-.844-1.749 1.005 1.005 0 00-.21-.383c-.493-.575-.704-1.366-.845-1.845-.233-.787-.443-1.954.156-2.768a.147.147 0 00.014-.023.126.126 0 00.014-.073C5.332 10.26 4.362 3 11.184 3c7.401 0 6.464 7.14 6.38 7.87a.124.124 0 00.015.073.151.151 0 00.012.021c.601.838.39 1.982.157 2.77-.117.454-.352 1.27-.844 1.844a.926.926 0 00-.169.303c-.016.053-.027.107-.045.159a8.003 8.003 0 01-.817 1.67 1.224 1.224 0 00-.188.647v.503c0 .05.069.054.116.065 2.217.545 7.199 2.183 7.199 6.26a.8.8 0 01-.797.815H.773A.79.79 0 010 25.21z" fill="url(#mpaint1_linear)"/><defs><linearGradient id="mpaint0_linear" x1="13.526" y1="19.928" x2="5.965" y2="8.552" gradientUnits="userSpaceOnUse"><stop stop-color="#505050"/><stop offset="1" stop-color="#333"/></linearGradient><linearGradient id="mpaint1_linear" x1="0" y1="26" x2="-10.881" y2="5.85" gradientUnits="userSpaceOnUse"><stop stop-color="#505050"/><stop offset="1" stop-color="#333"/></linearGradient></defs></svg><svg width="27" height="26" fill="none" viewBox="0 0 27 26" id="menu-profile-active" y="63" xmlns="http://www.w3.org/2000/svg"><path opacity=".5" d="M11 5.554a1 1 0 01.47-.848l7-4.375a1 1 0 011.06 0l7 4.375a1 1 0 01.47.848V16a1 1 0 01-1 1H12a1 1 0 01-1-1V5.554z" fill="url(#npaint0_linear)"/><path d="M0 25.21c0-4.078 4.981-5.74 7.199-6.262.047-.01.116-.015.116-.064v-.503c0-.215-.07-.455-.188-.647a6.319 6.319 0 01-.844-1.749 1.005 1.005 0 00-.21-.383c-.493-.575-.704-1.366-.845-1.845-.233-.787-.443-1.954.156-2.768a.147.147 0 00.014-.023.126.126 0 00.014-.073C5.332 10.26 4.362 3 11.184 3c7.401 0 6.464 7.14 6.38 7.87a.124.124 0 00.015.073.151.151 0 00.012.021c.601.838.39 1.982.157 2.77-.117.454-.352 1.27-.844 1.844a.926.926 0 00-.169.303c-.016.053-.027.107-.045.159a8.003 8.003 0 01-.817 1.67 1.224 1.224 0 00-.188.647v.503c0 .05.069.054.116.065 2.217.545 7.199 2.183 7.199 6.26a.8.8 0 01-.797.815H.773A.79.79 0 010 25.21z" fill="url(#npaint1_linear)"/><defs><linearGradient id="npaint0_linear" x1="19" y1="0" x2="19" y2="17" gradientUnits="userSpaceOnUse"><stop stop-color="#F66200"/><stop offset="1" stop-color="#FF971C"/></linearGradient><linearGradient id="npaint1_linear" x1="11.5" y1="9.5" x2="11.5" y2="24" gradientUnits="userSpaceOnUse"><stop stop-color="#F66200"/><stop offset="1" stop-color="#FF971C"/></linearGradient></defs></svg><svg width="29" height="23" fill="none" viewBox="0 0 29 23" id="menu-search" x="21" y="34" xmlns="http://www.w3.org/2000/svg"><path d="M0 7.052a1 1 0 011-1h14a1 1 0 011 1v14a1 1 0 01-1 1H1a1 1 0 01-1-1v-14z" fill="url(#opaint0_linear)" fill-opacity=".6"/><path fill-rule="evenodd" clip-rule="evenodd" d="M21.523 8.679c0 3.083-2.563 5.679-5.845 5.679-3.281 0-5.844-2.596-5.844-5.679S12.397 3 15.679 3c3.281 0 5.844 2.596 5.844 5.679zm-.58 7.962c-.324-.355-.853-.423-1.283-.21a8.944 8.944 0 01-3.982.927c-4.884 0-8.844-3.886-8.844-8.679S10.794 0 15.679 0c4.884 0 8.844 3.886 8.844 8.679 0 1.72-.51 3.322-1.388 4.67-.27.413-.257.962.075 1.326l4.397 4.813a1.5 1.5 0 11-2.215 2.024l-4.45-4.871z" fill="url(#opaint1_linear)"/><defs><linearGradient id="opaint0_linear" x1="2.526" y1="25.529" x2="-6.946" y2="13.527" gradientUnits="userSpaceOnUse"><stop stop-color="#505050"/><stop offset="1" stop-color="#333"/></linearGradient><linearGradient id="opaint1_linear" x1="6.834" y1="22" x2="-3.792" y2="3.069" gradientUnits="userSpaceOnUse"><stop stop-color="#505050"/><stop offset="1" stop-color="#333"/></linearGradient></defs></svg><svg width="29" height="23" fill="none" viewBox="0 0 29 23" id="menu-search-active" x="70" xmlns="http://www.w3.org/2000/svg"><path opacity=".5" d="M0 7.052a1 1 0 011-1h14a1 1 0 011 1v14a1 1 0 01-1 1H1a1 1 0 01-1-1v-14z" fill="url(#ppaint0_linear)"/><path fill-rule="evenodd" clip-rule="evenodd" d="M22.523 8.679c0 3.083-2.563 5.679-5.845 5.679-3.281 0-5.844-2.596-5.844-5.679S13.397 3 16.679 3c3.281 0 5.844 2.596 5.844 5.679zm-.581 7.967c-.324-.357-.854-.427-1.286-.213a8.945 8.945 0 01-3.977.925c-4.885 0-8.845-3.886-8.845-8.679S11.794 0 16.679 0c4.884 0 8.844 3.886 8.844 8.679a8.52 8.52 0 01-1.39 4.674c-.27.412-.258.958.071 1.322l4.326 4.776a1.5 1.5 0 11-2.223 2.014l-4.365-4.819z" fill="url(#ppaint1_linear)"/><defs><linearGradient id="ppaint0_linear" x1="8" y1="6.052" x2="8" y2="22.052" gradientUnits="userSpaceOnUse"><stop stop-color="#F66200"/><stop offset="1" stop-color="#FF971C"/></linearGradient><linearGradient id="ppaint1_linear" x1="18.376" y1="0" x2="18.376" y2="21.958" gradientUnits="userSpaceOnUse"><stop stop-color="#F66200"/><stop offset="1" stop-color="#FF971C"/></linearGradient></defs></svg><svg width="15" height="17" fill="none" viewBox="0 0 15 17" id="slider-hottest" x="99" y="35" xmlns="http://www.w3.org/2000/svg"><mask id="qa" maskUnits="userSpaceOnUse" x="0" y="0" width="15" height="17"><path fill="#C4C4C4" d="M0 0h15v17H0z"/></mask><g mask="url(#qa)"><path d="M12.727 6.834a.423.423 0 00-.309.383c-.065 1.048-.586 1.996-1.417 2.562.7-3.627-1.125-7.27-4.53-8.75a.46.46 0 00-.39.033.414.414 0 00-.18.35c0 1.613-1.14 2.977-2.33 4.391-1.205 1.43-2.443 2.894-2.557 4.724A5.935 5.935 0 003.669 15.9c.147.1.326.083.473-.016.13-.1.195-.283.13-.45a4.483 4.483 0 01.163-3.193 4.23 4.23 0 00.782 2.129A3.977 3.977 0 008.427 16c.114 0 .244 0 .358-.017 1.988-.232 3.698-1.447 4.594-3.277a6.02 6.02 0 00-.195-5.689c-.098-.15-.294-.232-.457-.183z" fill="#FF781C"/></g></svg><svg width="11" height="15" fill="none" viewBox="0 0 11 15" id="slider-nearest" x="99" y="67" xmlns="http://www.w3.org/2000/svg"><path fill-rule="evenodd" clip-rule="evenodd" d="M0 5.299C0 2.374 2.464 0 5.5 0S11 2.374 11 5.299C11 9.199 5.5 15 5.5 15S0 9.198 0 5.299zM5.5 8a2.5 2.5 0 100-5 2.5 2.5 0 000 5z" fill="#FF781C"/></svg><svg width="18" height="16" fill="none" viewBox="0 0 18 16" id="slider-tour" y="89" xmlns="http://www.w3.org/2000/svg"><path fill-rule="evenodd" clip-rule="evenodd" d="M11 11.473C11 10.108 12.12 9 13.5 9s2.5 1.108 2.5 2.473C16 13.293 13.5 16 13.5 16S11 13.293 11 11.473z" fill="#FF781C"/><path d="M7.006 2h6.497a2.5 2.5 0 012.5 2.497v0A2.5 2.5 0 0113.503 7H5.006a4 4 0 00-4 4v0a4 4 0 004 4h3.5" stroke="#FF781C" stroke-width="2" stroke-linecap="round" stroke-linejoin="round"/><circle cx="2" cy="2" r="2" fill="#FF781C"/></svg></svg>